<?xml version="1.0" encoding="UTF-8" standalone="no"?><!DOCTYPE svg PUBLIC "-//W3C//DTD SVG 1.1//EN" "http://www.w3.org/Graphics/SVG/1.1/DTD/svg11.dtd"><svg width="100%" height="100%" viewBox="0 0 3000 3000" version="1.1" xmlns="http://www.w3.org/2000/svg" xmlns:xlink="http://www.w3.org/1999/xlink" xml:space="preserve" xmlns:serif="http://www.serif.com/" style="fill-rule:evenodd;clip-rule:evenodd;stroke-linejoin:round;stroke-miterlimit:2;"><g><g><path d="M1020.85,949.567c239.126,-276.32 -109.759,-394.254 -226.289,-353.311c14.417,112.118 100.04,245.516 226.282,353.31l0.007,0.001Z" style="fill:#ffc800;"/><path d="M1349.65,1126.28c319.944,86.226 705.444,-41.236 949.683,-699.373c3.298,-8.888 6.57,-17.872 9.814,-26.952c-405.471,-174.418 -809.892,222.925 -959.506,726.307l0.009,0.018Z" style="fill:#ffc800;"/><path d="M1308.16,1305.53c-27.218,163.433 -26.537,331.953 9.841,491.247c89.498,9.337 284.145,-196.962 284.145,-196.962l-293.986,-294.285l0,-0.001l-0.001,0.001l0.001,0Z" style="fill:#ffc800;"/><path d="M1458,2125.65c63.584,94.752 146.637,180.245 251.675,251.863c124.569,12.996 395.17,-274.491 395.17,-274.491l-251.347,-251.603c-0.241,0.256 -270.984,287.221 -395.498,274.231Z" style="fill:#ffc800;"/><path d="M2054.28,2535.47c155.576,44.824 338.245,69.461 550.972,68.471l-265.682,-265.952c-0.232,0.246 -195.22,206.875 -285.29,197.481Z" style="fill:#ffc800;"/></g><g><path d="M949.567,1020.85c-276.32,239.126 -394.254,-109.759 -353.311,-226.289c112.118,14.417 245.516,100.04 353.31,226.282l0.001,0.007Z" style="fill:#ffc800;"/><path d="M1126.28,1349.65c86.226,319.944 -41.236,705.444 -699.373,949.683c-8.888,3.298 -17.872,6.57 -26.952,9.814c-174.418,-405.471 222.925,-809.892 726.307,-959.506l0.018,0.009Z" style="fill:#ffc800;"/><path d="M1305.53,1308.16c163.433,-27.218 331.953,-26.537 491.247,9.841c9.337,89.498 -196.962,284.145 -196.962,284.145l-294.285,-293.986l-0.001,0l0.001,-0.001l0,0.001Z" style="fill:#ffc800;"/><path d="M2125.65,1458c94.752,63.584 180.245,146.637 251.863,251.675c12.996,124.569 -274.491,395.17 -274.491,395.17l-251.603,-251.347c0.256,-0.241 287.221,-270.984 274.231,-395.498Z" style="fill:#ffc800;"/><path d="M2535.47,2054.28c44.824,155.576 69.461,338.245 68.471,550.972l-265.952,-265.682c0.246,-0.232 206.875,-195.22 197.481,-285.29Z" style="fill:#ffc800;"/></g></g></svg>